<svg width="16" height="16" viewBox="0 0 16 16" fill="none" xmlns="http://www.w3.org/2000/svg">
<path d="M8 5.33325V8.66659H11.3333V7.33325H9.33333V5.33325H8Z" fill="white"/>
<path d="M14.1943 5.66467C13.8936 4.95137 13.4571 4.30334 12.909 3.75667C12.0794 2.92704 11.0248 2.35874 9.87568 2.122C9.07807 1.95966 8.25594 1.95966 7.45834 2.122C6.30812 2.35722 5.25266 2.926 4.42367 3.75733C3.87693 4.30459 3.44056 4.95191 3.13834 5.664C2.82575 6.40308 2.66522 7.19754 2.66634 8L2.66701 8.01667H1.33301L3.33301 10.6667L5.33301 8.01667H4.00034L3.99967 8C3.99776 7.07025 4.27532 6.16138 4.79634 5.39134C5.13242 4.89446 5.56031 4.46634 6.05701 4.13C6.5623 3.7896 7.12909 3.55093 7.72567 3.42733C8.93803 3.17807 10.1998 3.42042 11.2335 4.10111C12.2672 4.78181 12.9883 5.84513 13.2383 7.05734C13.3641 7.67859 13.3641 8.31875 13.2383 8.94C13.1164 9.53709 12.8776 10.1042 12.5357 10.6087C12.369 10.856 12.1777 11.0887 11.9663 11.2993C11.5405 11.7247 11.0369 12.0644 10.483 12.3C10.2009 12.4193 9.90769 12.5104 9.60767 12.572C8.98663 12.6977 8.34671 12.6977 7.72567 12.572C7.12921 12.4497 6.56265 12.2112 6.05834 11.87C5.81031 11.7024 5.57882 11.5115 5.36701 11.3L4.42434 12.2427C4.98109 12.8002 5.64236 13.2424 6.37027 13.5439C7.09819 13.8455 7.87844 14.0005 8.66634 14C9.46838 13.9997 10.2623 13.8394 11.0017 13.5287C12.0734 13.0752 12.9904 12.3202 13.641 11.3553C14.3107 10.3646 14.6678 9.19582 14.6663 8C14.668 7.1977 14.5075 6.40334 14.1943 5.66467Z" fill="white"/>
</svg>
