<svg width="47" height="32" viewBox="0 0 47 32" fill="none" xmlns="http://www.w3.org/2000/svg">
<path d="M34.5041 3.99609C36.5729 3.99609 38.4457 4.83468 39.8015 6.19041C41.1571 7.54602 41.9958 9.41903 41.9958 11.4876C41.9958 13.5562 41.1571 15.4293 39.8015 16.7849C38.4457 18.1406 36.5729 18.9792 34.5041 18.9792C32.4355 18.9792 30.5626 18.1406 29.2069 16.7849C27.8513 15.4293 27.0126 13.5564 27.0126 11.4876C27.0126 9.41903 27.8513 7.54602 29.2069 6.19041C30.5626 4.83468 32.4355 3.99609 34.5041 3.99609ZM38.7775 7.21428C37.684 6.12064 36.1731 5.44422 34.5041 5.44422C32.8353 5.44422 31.3243 6.12064 30.2308 7.21428C29.1371 8.30779 28.4607 9.81877 28.4607 11.4876C28.4607 13.1566 29.1371 14.6675 30.2308 15.761C31.3243 16.8546 32.8353 17.5311 34.5041 17.5311C36.1731 17.5311 37.684 16.8546 38.7775 15.761C39.8712 14.6675 40.5477 13.1565 40.5477 11.4876C40.5477 9.81877 39.8712 8.30779 38.7775 7.21428Z" fill="#4B4439"/>
<path d="M34.5042 7.85979C35.506 7.85979 36.413 8.26582 37.0696 8.92238C37.726 9.57894 38.1322 10.4859 38.1322 11.4876C38.1322 12.4894 37.726 13.3964 37.0696 14.0529C36.413 14.7095 35.506 15.1155 34.5042 15.1155C33.5026 15.1155 32.5956 14.7095 31.9389 14.0529C31.2824 13.3964 30.8763 12.4893 30.8763 11.4876C30.8763 10.4859 31.2824 9.57894 31.9389 8.92238C32.5955 8.26582 33.5026 7.85979 34.5042 7.85979ZM36.0456 9.94625C35.6511 9.55191 35.1062 9.30791 34.5042 9.30791C33.9022 9.30791 33.3573 9.55191 32.9629 9.94625C32.5685 10.3407 32.3246 10.8856 32.3246 11.4876C32.3246 12.0897 32.5685 12.6346 32.9629 13.029C33.3573 13.4234 33.9022 13.6674 34.5042 13.6674C35.1062 13.6674 35.6511 13.4234 36.0456 13.0289C36.4401 12.6346 36.6839 12.0897 36.6839 11.4876C36.6839 10.8856 36.4401 10.3407 36.0456 9.94625Z" fill="#4B4439"/>
<path d="M31.2172 18.2192V25.7903L34.0726 23.1237L34.0714 23.1224C34.3636 22.8495 34.8219 22.8652 35.0948 23.1575L35.1075 23.1715L37.7912 25.7822V18.2192C37.4851 18.369 37.1672 18.4986 36.8392 18.6063C36.1021 18.8482 35.3171 18.9792 34.5041 18.9792C33.6913 18.9792 32.9062 18.8482 32.1691 18.6063C31.8412 18.4986 31.5233 18.369 31.2172 18.2192ZM29.7689 27.455V16.9384C29.7688 16.789 29.8148 16.6383 29.9101 16.5088C30.1474 16.1869 30.6008 16.1184 30.9226 16.3555L30.9216 16.3568C31.4321 16.7328 32.0028 17.0304 32.616 17.2318C33.2077 17.426 33.8424 17.5311 34.5041 17.5311C35.166 17.5311 35.8006 17.426 36.3923 17.2318C36.991 17.0352 37.5491 16.747 38.0499 16.3837C38.1757 16.278 38.338 16.2143 38.5153 16.2143C38.9151 16.2143 39.2393 16.5385 39.2393 16.9385V27.4941H39.2392C39.2392 27.6761 39.1711 27.8583 39.0342 27.9989C38.7555 28.2857 38.2969 28.292 38.0104 28.0131L38.0118 28.0118L34.5558 24.6495L31.0209 27.9507C30.889 28.0912 30.7012 28.1791 30.493 28.1791C30.0932 28.1791 29.7689 27.8549 29.7689 27.455Z" fill="#4B4439"/>
<path d="M18.9296 21.39C19.3295 21.39 19.6536 21.0659 19.6536 20.6659C19.6536 20.2662 19.3295 19.942 18.9296 19.942H5.06855C4.66868 19.942 4.34448 20.2662 4.34448 20.6659C4.34448 21.0659 4.66868 21.39 5.06855 21.39H18.9296Z" fill="#4B4439"/>
<path d="M18.9296 16.8311C19.3295 16.8311 19.6536 16.5069 19.6536 16.1071C19.6536 15.7073 19.3295 15.383 18.9296 15.383H5.06855C4.66868 15.383 4.34448 15.7073 4.34448 16.1071C4.34448 16.5069 4.66868 16.8311 5.06855 16.8311H18.9296Z" fill="#4B4439"/>
<path d="M18.9296 12.2723C19.3295 12.2723 19.6536 11.9481 19.6536 11.5482C19.6536 11.1484 19.3295 10.8242 18.9296 10.8242H5.06855C4.66868 10.8242 4.34448 11.1484 4.34448 11.5482C4.34448 11.9481 4.66868 12.2723 5.06855 12.2723H18.9296Z" fill="#4B4439"/>
<path d="M2.81216 0.245041H43.5282C44.3023 0.245041 45.0053 0.56119 45.5147 1.07055C46.0239 1.57978 46.3402 2.28298 46.3402 3.05707V29.1572C46.3402 29.9311 46.0239 30.6345 45.5147 31.1437C45.0053 31.6531 44.3023 31.9691 43.5282 31.9691H2.81216C2.03806 31.9691 1.33487 31.6531 0.825508 31.1437C0.316275 30.6345 0 29.9311 0 29.1572V3.05707C0 2.28298 0.316275 1.57978 0.825508 1.07055C1.33487 0.56119 2.03806 0.245041 2.81216 0.245041ZM43.5282 1.69317H2.81216C2.43781 1.69317 2.09702 1.84691 1.84938 2.09442C1.60187 2.34193 1.44825 2.68285 1.44825 3.05707V29.1572C1.44825 29.5315 1.60187 29.8724 1.84938 30.1198C2.09702 30.3673 2.43781 30.5211 2.81216 30.5211H43.5282C43.9024 30.5211 44.2433 30.3673 44.4908 30.1198C44.7383 29.8724 44.8921 29.5315 44.8921 29.1572V3.05707C44.8921 2.68285 44.7383 2.34193 44.4908 2.09442C44.2433 1.84691 43.9024 1.69317 43.5282 1.69317Z" fill="#4B4439"/>
<path fill-rule="evenodd" clip-rule="evenodd" d="M34.5042 9.30791C33.9022 9.30791 33.3573 9.5519 32.9629 9.94624C32.5685 10.3407 32.3246 10.8856 32.3246 11.4876C32.3246 12.0896 32.5685 12.6346 32.9629 13.029C33.3573 13.4234 33.9022 13.6674 34.5042 13.6674C35.1062 13.6674 35.6511 13.4234 36.0456 13.0289C36.4401 12.6346 36.6839 12.0896 36.6839 11.4876C36.6839 10.8856 36.4401 10.3407 36.0456 9.94624C35.6511 9.5519 35.1062 9.30791 34.5042 9.30791Z" fill="#FFCC80"/>
<path fill-rule="evenodd" clip-rule="evenodd" d="M34.5041 7.85979C35.5059 7.85979 36.4129 8.26582 37.0695 8.92237C37.7259 9.57893 38.1321 10.4859 38.1321 11.4876C38.1321 12.4894 37.7259 13.3964 37.0695 14.0529C36.4129 14.7095 35.5059 15.1155 34.5041 15.1155C33.5025 15.1155 32.5955 14.7095 31.9388 14.0529C31.2823 13.3964 30.8763 12.4893 30.8763 11.4876C30.8763 10.4859 31.2823 9.57893 31.9388 8.92237C32.5954 8.26582 33.5025 7.85979 34.5041 7.85979ZM34.5041 5.44423C32.8352 5.44423 31.3243 6.12065 30.2308 7.21429C29.1371 8.3078 28.4607 9.81878 28.4607 11.4876C28.4607 13.1566 29.1371 14.6675 30.2308 15.761C30.4403 15.9707 30.6653 16.165 30.9039 16.3421C30.9102 16.3465 30.9164 16.3509 30.9224 16.3558C31.876 17.0585 33.0435 17.4879 34.3093 17.5279C34.3739 17.5301 34.439 17.5311 34.5041 17.5311C34.571 17.5311 34.6374 17.5301 34.7035 17.5278C35.9598 17.4871 37.1192 17.0631 38.0684 16.3688C38.0685 16.3687 38.0686 16.3687 38.0687 16.3685C38.0802 16.3595 38.0919 16.3508 38.1039 16.3425C38.1041 16.3424 38.1042 16.3423 38.1044 16.3423C38.3429 16.165 38.5679 15.9707 38.7775 15.761C39.8712 14.6675 40.5477 13.1565 40.5477 11.4876C40.5477 9.81878 39.8712 8.3078 38.7775 7.21429C37.684 6.12065 36.1731 5.44423 34.5041 5.44423Z" fill="#FFF59D"/>
<path fill-rule="evenodd" clip-rule="evenodd" d="M27.0126 11.4876C27.0126 9.41904 27.8513 7.54603 29.2069 6.19042C30.5626 4.83468 32.4355 3.9961 34.5041 3.9961C36.5729 3.9961 38.4458 4.83468 39.8015 6.19042C41.1571 7.54603 41.9958 9.41904 41.9958 11.4876C41.9958 13.5563 41.1571 15.4293 39.8015 16.7849C39.6229 16.9636 39.4352 17.1332 39.2393 17.2932L39.2392 27.4941C39.2392 27.6761 39.1711 27.8583 39.0342 27.9989C38.7555 28.2857 38.2969 28.292 38.0104 28.0131L38.0118 28.0118L34.5558 24.6495L31.021 27.9507C30.889 28.0912 30.7012 28.1791 30.493 28.1791C30.0933 28.1791 29.7689 27.8549 29.7689 27.455V17.2931C29.5731 17.1332 29.3855 16.9635 29.2069 16.7849C27.8513 15.4293 27.0126 13.5564 27.0126 11.4876ZM43.5282 1.69318H2.81215C2.4378 1.69318 2.09701 1.84691 1.84937 2.09443C1.60185 2.34194 1.44824 2.68286 1.44824 3.05708V29.1572C1.44824 29.5315 1.60185 29.8725 1.84937 30.1198C2.09701 30.3674 2.4378 30.5211 2.81215 30.5211H43.5282C43.9024 30.5211 44.2433 30.3674 44.4908 30.1198C44.7383 29.8725 44.8921 29.5315 44.8921 29.1572V3.05708C44.8921 2.68286 44.7383 2.34194 44.4908 2.09443C44.2433 1.84691 43.9024 1.69318 43.5282 1.69318ZM18.9296 10.8242C19.3295 10.8242 19.6537 11.1484 19.6537 11.5482C19.6537 11.9481 19.3295 12.2723 18.9296 12.2723H5.06856C4.66869 12.2723 4.3445 11.9481 4.3445 11.5482C4.3445 11.1484 4.66869 10.8242 5.06856 10.8242H18.9296ZM18.9296 15.383C19.3295 15.383 19.6537 15.7073 19.6537 16.1071C19.6537 16.5069 19.3295 16.8311 18.9296 16.8311H5.06856C4.66869 16.8311 4.3445 16.5069 4.3445 16.1071C4.3445 15.7073 4.66869 15.383 5.06856 15.383H18.9296ZM18.9296 19.942C19.3295 19.942 19.6537 20.2662 19.6537 20.6659C19.6537 21.0659 19.3295 21.39 18.9296 21.39H5.06856C4.66869 21.39 4.3445 21.0659 4.3445 20.6659C4.3445 20.2662 4.66869 19.942 5.06856 19.942H18.9296Z" fill="#F5F5F5"/>
<path fill-rule="evenodd" clip-rule="evenodd" d="M34.5041 18.9792C33.325 18.9792 32.2095 18.7067 31.2172 18.2214V25.7903L34.0726 23.1237L34.0714 23.1224C34.3636 22.8495 34.8219 22.8652 35.0948 23.1575L35.1075 23.1715L37.7912 25.7822V18.2214C36.7987 18.7067 35.6832 18.9792 34.5041 18.9792Z" fill="#DCE775"/>
<path fill-rule="evenodd" clip-rule="evenodd" d="M34.9449 9.35242C35.3819 9.95153 35.6397 10.6895 35.6397 11.4877C35.6397 12.2858 35.3819 13.0236 34.9449 13.6228C35.3701 13.5355 35.7501 13.3245 36.0455 13.0289C36.44 12.6346 36.6838 12.0897 36.6838 11.4877C36.6838 10.8856 36.44 10.3407 36.0455 9.94625C35.7501 9.65084 35.3701 9.43978 34.9449 9.35242Z" fill="#C09A62"/>
<path fill-rule="evenodd" clip-rule="evenodd" d="M37.3092 6.19042C38.6648 7.54603 39.5035 9.41904 39.5035 11.4876C39.5035 13.5563 38.6648 15.4293 37.3092 16.7849C37.2689 16.8254 37.2279 16.8652 37.1867 16.9047C37.4966 16.7509 37.7915 16.5714 38.0685 16.3688C38.0686 16.3687 38.0687 16.3687 38.0689 16.3685C38.0803 16.3595 38.092 16.3508 38.104 16.3425C38.1042 16.3424 38.1043 16.3423 38.1046 16.3423C38.1864 16.2813 38.2668 16.2183 38.3457 16.1536C38.5121 16.0118 38.695 15.8437 38.7776 15.761C39.3585 15.1802 39.7963 14.5107 40.0912 13.796C40.3957 13.0586 40.5478 12.2732 40.5478 11.4876C40.5478 10.6699 40.3854 9.89018 40.0911 9.17869C40.0899 9.17617 40.0889 9.17366 40.0878 9.17127C39.7817 8.43376 39.3334 7.77016 38.7776 7.21429C38.3154 6.75194 37.7785 6.36414 37.1865 6.0705C37.2279 6.10997 37.2689 6.14994 37.3092 6.19042Z" fill="#C0B978"/>
<path fill-rule="evenodd" clip-rule="evenodd" d="M37.7912 18.2214C37.4563 18.3852 37.1075 18.5246 36.7469 18.6378V24.7664L37.7912 25.7822V18.2214Z" fill="#A6AE5A"/>
<path fill-rule="evenodd" clip-rule="evenodd" d="M43.3987 3.05708V29.1572C43.3987 29.6513 43.2698 30.1167 43.0442 30.5211H43.5282C43.9024 30.5211 44.2433 30.3674 44.4908 30.1198C44.7383 29.8725 44.8921 29.5315 44.8921 29.1572V3.05708C44.8921 2.68286 44.7383 2.34194 44.4908 2.09443C44.2433 1.84691 43.9024 1.69318 43.5282 1.69318H43.0441C43.2698 2.09757 43.3987 2.56293 43.3987 3.05708Z" fill="#B9B9B9"/>
</svg>
