<svg xmlns="http://www.w3.org/2000/svg" width="14.93" height="14.93" viewBox="0 0 14.93 14.93"><defs><style>.a{fill:#ff4d4d;}</style></defs><path class="a" d="M12.549,14.929A1.481,1.481,0,0,1,11.5,14.5L7.465,10.46,3.43,14.5a1.485,1.485,0,0,1-2.1,0l-.9-.9a1.485,1.485,0,0,1,0-2.1L4.469,7.465.434,3.429a1.485,1.485,0,0,1,0-2.1l.9-.9a1.485,1.485,0,0,1,2.1,0L7.465,4.469,11.5.434a1.485,1.485,0,0,1,2.1,0l.9.9a1.485,1.485,0,0,1,0,2.1L10.461,7.465,14.5,11.5a1.485,1.485,0,0,1,0,2.1l-.9.9a1.481,1.481,0,0,1-1.049.433Zm-5.084-6a.631.631,0,0,1,.448.186L12.4,13.6a.218.218,0,0,0,.3,0l.9-.9a.218.218,0,0,0,0-.3L9.115,7.913a.635.635,0,0,1,0-.9L13.6,2.532a.217.217,0,0,0,0-.3l-.9-.9a.219.219,0,0,0-.3,0L7.913,5.815a.654.654,0,0,1-.9,0L2.532,1.331a.218.218,0,0,0-.3,0l-.9.9a.218.218,0,0,0,0,.3L5.815,7.016a.635.635,0,0,1,0,.9L1.331,12.4a.217.217,0,0,0,0,.3l.9.9a.219.219,0,0,0,.3,0L7.017,9.115a.629.629,0,0,1,.448-.187Zm0,0" transform="translate(0 0)"/></svg>