<svg width="24" height="24" viewBox="0 0 24 24" fill="none" xmlns="http://www.w3.org/2000/svg">
<mask id="mask0_186_1843" style="mask-type:alpha" maskUnits="userSpaceOnUse" x="0" y="0" width="24" height="24">
<rect width="24" height="24" fill="#D9D9D9"/>
</mask>
<g mask="url(#mask0_186_1843)">
<path d="M12 13L4 8V18H12C12 18.35 12.025 18.6875 12.075 19.0125C12.125 19.3375 12.2 19.6667 12.3 20H4C3.45 20 2.97917 19.8042 2.5875 19.4125C2.19583 19.0208 2 18.55 2 18V6C2 5.45 2.19583 4.97917 2.5875 4.5875C2.97917 4.19583 3.45 4 4 4H20C20.55 4 21.0208 4.19583 21.4125 4.5875C21.8042 4.97917 22 5.45 22 6V11.7C21.7 11.55 21.3792 11.425 21.0375 11.325C20.6958 11.225 20.35 11.15 20 11.1V8L12 13ZM12 11L20 6H4L12 11Z" fill="#1C1B1F"/>
<path d="M18 22C16.6167 22 15.4375 21.5125 14.4625 20.5375C13.4875 19.5625 13 18.3833 13 17C13 15.6167 13.4875 14.4375 14.4625 13.4625C15.4375 12.4875 16.6167 12 18 12C19.3833 12 20.5625 12.4875 21.5375 13.4625C22.5125 14.4375 23 15.6167 23 17C23 18.3833 22.5125 19.5625 21.5375 20.5375C20.5625 21.5125 19.3833 22 18 22ZM19.65 19.35L20.35 18.65L18.5 16.8V14H17.5V17.2L19.65 19.35Z" fill="#1C1B1F"/>
</g>
</svg>