<?xml version="1.0" standalone="no"?>
<!DOCTYPE svg PUBLIC "-//W3C//DTD SVG 20010904//EN"
 "http://www.w3.org/TR/2001/REC-SVG-20010904/DTD/svg10.dtd">
<svg version="1.0" xmlns="http://www.w3.org/2000/svg"
 width="512.000000pt" height="512.000000pt" viewBox="0 0 512.000000 512.000000"
 preserveAspectRatio="xMidYMid meet">

<g transform="translate(0.000000,512.000000) scale(0.100000,-0.100000)"
fill="#000000" stroke="none">
<path d="M205 5104 c-113 -41 -170 -187 -115 -294 11 -21 396 -569 856 -1217
460 -647 849 -1201 866 -1229 16 -29 34 -67 41 -86 8 -24 13 -307 17 -1073 6
-1150 1 -1075 70 -1142 46 -45 108 -67 168 -60 68 9 1027 378 1070 412 19 15
43 46 53 69 18 39 19 81 19 861 0 896 1 904 58 1009 16 29 407 586 869 1237
462 651 848 1199 857 1218 10 18 20 56 23 85 7 72 -34 149 -102 191 l-48 30
-2331 2 c-2020 1 -2336 0 -2371 -13z m4481 -346 c-225 -315 -1549 -2183 -1572
-2220 -42 -66 -72 -130 -96 -210 -22 -72 -22 -82 -28 -898 l-5 -825 -425 -162
-425 -161 -5 996 c-6 1096 -2 1025 -69 1167 -38 82 35 -23 -886 1275 -435 613
-795 1121 -799 1128 -6 9 435 12 2188 12 l2196 0 -74 -102z"/>
</g>
</svg>
