<svg fill="#000000" xmlns="http://www.w3.org/2000/svg"  viewBox="0 0 26 26" width="208px" height="208px"><path d="M 15 0 L 0 2.875 L 0 23.125 L 15 26 Z M 16 3 L 16 7.25 C 16.601563 6.929688 17.273438 6.71875 18 6.71875 L 18 11 L 22.28125 11 C 22.28125 13.359375 20.359375 15.28125 18 15.28125 C 17.273438 15.28125 16.601563 15.070313 16 14.75 L 16 18 L 21 18 L 21 20 L 16 20 L 16 23 L 25.15625 23 C 25.617188 23 26 22.605469 26 22.125 L 26 3.875 C 26 3.394531 25.617188 3 25.15625 3 Z M 19 5.71875 C 21.359375 5.71875 23.28125 7.640625 23.28125 10 L 19 10 Z M 3.875 7.9375 L 7.4375 7.9375 C 9.992188 7.9375 11.28125 9.003906 11.28125 11.15625 C 11.28125 12.171875 10.917969 13.027344 10.1875 13.65625 C 9.453125 14.285156 8.476563 14.59375 7.25 14.59375 L 6.15625 14.59375 L 6.15625 18.0625 L 3.875 18.0625 Z M 6.15625 9.6875 L 6.15625 12.84375 L 7.0625 12.84375 C 8.277344 12.84375 8.875 12.316406 8.875 11.25 C 8.875 10.207031 8.277344 9.6875 7.0625 9.6875 Z"/></svg>