<?xml version="1.0" standalone="no"?>
<!DOCTYPE svg PUBLIC "-//W3C//DTD SVG 20010904//EN"
 "http://www.w3.org/TR/2001/REC-SVG-20010904/DTD/svg10.dtd">
<svg version="1.0" xmlns="http://www.w3.org/2000/svg"
 width="225.000000pt" height="225.000000pt" viewBox="0 0 225.000000 225.000000"
 preserveAspectRatio="xMidYMid meet">

<g transform="translate(0.000000,225.000000) scale(0.100000,-0.100000)"
fill="#000000" stroke="none">
<path d="M295 1945 c-29 -14 -60 -40 -75 -62 l-25 -37 -3 -613 c-2 -589 -2
-616 17 -658 13 -29 34 -53 62 -72 l43 -28 401 -3 401 -3 11 93 c6 54 7 94 2
96 -5 2 -9 87 -9 188 l0 184 141 0 c139 0 141 0 212 34 40 19 97 40 127 47 59
14 198 17 243 6 l27 -7 0 360 c0 342 -1 363 -20 400 -11 22 -39 52 -62 67
l-42 28 -700 3 -701 3 -50 -26z m645 -540 l0 -185 -285 0 -285 0 0 185 0 185
285 0 285 0 0 -185z m750 0 l0 -185 -285 0 -285 0 0 185 0 185 285 0 285 0 0
-185z m-750 -560 l0 -185 -285 0 -285 0 0 185 0 185 285 0 285 0 0 -185z"/>
<path d="M1589 876 c-64 -17 -128 -57 -178 -111 -138 -149 -126 -386 26 -525
73 -67 144 -93 253 -94 91 0 144 16 223 71 36 25 117 125 117 145 0 4 -34 8
-75 8 -70 0 -78 -2 -120 -35 -97 -74 -207 -73 -295 3 -58 49 -84 104 -84 177
0 68 19 116 66 164 68 70 166 89 256 51 86 -37 86 -40 -4 -131 l-79 -79 183 0
182 0 0 182 0 182 -52 -51 -53 -51 -45 34 c-85 64 -215 89 -321 60z"/>
</g>
</svg>
