<svg width="12" height="12" viewBox="0 0 12 12" fill="none" xmlns="http://www.w3.org/2000/svg">
<path d="M0.75 0V11.6814H1.72189V7.78758H11.4408V0H0.75ZM1.72189 0.973448H3.17973V2.43362H4.63756V0.973448H6.0954V2.43362H7.55324V0.973448H9.01107V2.43362H10.4689V3.89379H9.01107V5.35396H10.4689V6.81414H9.01107V5.35396H7.55324V6.81414H6.0954V5.35396H4.63756V6.81414H3.17973V5.35396H1.72189V3.89379H3.17973V2.43362H1.72189V0.973448ZM3.17973 3.89379V5.35396H4.63756V3.89379H3.17973ZM4.63756 3.89379H6.0954V2.43362H4.63756V3.89379ZM6.0954 3.89379V5.35396H7.55324V3.89379H6.0954ZM7.55324 3.89379H9.01107V2.43362H7.55324V3.89379Z" fill="black"/>
</svg>
