<svg width="16" height="16" viewBox="0 0 16 16" fill="none" xmlns="http://www.w3.org/2000/svg">
<g clip-path="url(#clip0_6750_5730)">
<path fill-rule="evenodd" clip-rule="evenodd" d="M2.57576 1.2424C2.68828 1.12988 2.84089 1.06667 3.00002 1.06667H12.3334C12.4925 1.06667 12.6451 1.12988 12.7576 1.2424C12.8701 1.35492 12.9334 1.50754 12.9334 1.66667L12.9334 5.33335H11.7334L11.7334 2.26667H3.60002L3.60002 11.7333H4.87182V12.9333H3.00002C2.66865 12.9333 2.40002 12.6647 2.40002 12.3333L2.40002 1.66667C2.40002 1.50754 2.46324 1.35492 2.57576 1.2424Z" fill="black"/>
<path fill-rule="evenodd" clip-rule="evenodd" d="M11.0373 6.71381C11.532 6.21914 12.334 6.21914 12.8287 6.71381L14.2429 8.12802C14.7375 8.62268 14.7375 9.42469 14.2429 9.91936L9.87016 14.2921C9.55036 14.6119 9.12855 14.8094 8.67813 14.8504L6.56615 15.0424C6.38882 15.0585 6.21348 14.995 6.08757 14.8691C5.96165 14.7432 5.89817 14.5679 5.9143 14.3905L6.10629 12.2785C6.14724 11.8281 6.34481 11.4063 6.66461 11.0865L11.0373 6.71381ZM11.9801 7.56233C11.9541 7.5363 11.9119 7.5363 11.8858 7.56233L11.3673 8.08088L12.8758 9.58937L13.3943 9.07083C13.4204 9.04479 13.4204 9.00258 13.3943 8.97655L11.9801 7.56233ZM12.0273 10.4379L10.5188 8.92941L7.51314 11.935C7.39183 12.0563 7.3169 12.2163 7.30136 12.3872L7.17455 13.7821L8.56948 13.6553C8.74033 13.6398 8.90033 13.5648 9.02164 13.4435L12.0273 10.4379Z" fill="black"/>
<path fill-rule="evenodd" clip-rule="evenodd" d="M4.39997 4.60008C4.39997 4.26871 4.6686 4.00008 4.99997 4.00008L10.3333 4.00008C10.6647 4.00008 10.9333 4.2687 10.9333 4.60008C10.9333 4.93145 10.6647 5.20008 10.3333 5.20008L4.99997 5.20008C4.6686 5.20008 4.39997 4.93145 4.39997 4.60008ZM4.39997 7.26674C4.39997 6.93537 4.6686 6.66674 4.99997 6.66674L7.66663 6.66674C7.998 6.66674 8.26663 6.93537 8.26663 7.26674C8.26663 7.59811 7.998 7.86674 7.66663 7.86674L4.99997 7.86674C4.6686 7.86674 4.39997 7.59811 4.39997 7.26674ZM4.39996 9.93341C4.39996 9.60204 4.66859 9.33341 4.99996 9.33341L5.66663 9.33341C5.998 9.33341 6.26663 9.60204 6.26663 9.93341C6.26663 10.2648 5.998 10.5334 5.66663 10.5334L4.99996 10.5334C4.66859 10.5334 4.39996 10.2648 4.39996 9.93341Z" fill="black"/>
</g>
<defs>
<clipPath id="clip0_6750_5730">
<rect width="16" height="16" fill="white"/>
</clipPath>
</defs>
</svg>
