<svg width="19" height="18" viewBox="0 0 19 18" fill="none" xmlns="http://www.w3.org/2000/svg">
<path d="M17.6588 8.3789L9.97315 0.69721L9.45799 0.182048C9.34061 0.0654431 9.18187 0 9.01642 0C8.85097 0 8.69223 0.0654431 8.57485 0.182048L0.374023 8.3789C0.253747 8.49871 0.158692 8.6414 0.0944668 8.79854C0.0302418 8.95569 -0.00185106 9.12411 8.24453e-05 9.29386C0.00803862 9.99401 0.590829 10.5529 1.29097 10.5529H2.13632V17.0312H15.8965V10.5529H16.7598C17.0999 10.5529 17.4201 10.4197 17.6608 10.179C17.7793 10.0609 17.8732 9.9204 17.9371 9.76573C18.0009 9.61107 18.0334 9.44527 18.0328 9.27795C18.0328 8.93981 17.8995 8.61958 17.6588 8.3789ZM10.1303 15.5991H7.90256V11.5415H10.1303V15.5991ZM14.4644 9.12081V15.5991H11.4033V11.0641C11.4033 10.6245 11.0472 10.2685 10.6077 10.2685H7.42519C6.98561 10.2685 6.62957 10.6245 6.62957 11.0641V15.5991H3.56843V9.12081H1.65895L9.01841 1.76732L9.47788 2.22679L16.3759 9.12081H14.4644Z" fill="#1F96F4"/>
</svg>
