<svg width="16" height="16" viewBox="0 0 16 16" fill="none" xmlns="http://www.w3.org/2000/svg">
<path d="M7.49295 2.08706C7.39346 2.0328 7.27321 2.0328 7.17372 2.08706L0.536716 5.70725C0.305048 5.83361 0.305106 6.16628 0.536818 6.29257L2.49285 7.3586C2.59999 7.417 2.66667 7.52927 2.66667 7.65129V11.2555C2.66667 11.3775 2.73327 11.4897 2.84032 11.5481L7.17366 13.9129C7.27318 13.9672 7.39349 13.9672 7.49301 13.9129L11.8263 11.5481C11.9334 11.4897 12 11.3775 12 11.2555V7.65129C12 7.52927 12.0667 7.417 12.1738 7.3586L13.3333 6.72667V11C13.3333 11.1841 13.4826 11.3333 13.6667 11.3333H14.3333C14.5174 11.3333 14.6667 11.1841 14.6667 11V6.19788C14.6667 6.0759 14.6 5.96366 14.493 5.90525L7.49295 2.08706ZM11.88 6L7.49295 8.39294C7.39346 8.4472 7.27321 8.4472 7.17372 8.39294L2.78667 6L7.17372 3.60706C7.27321 3.5528 7.39346 3.5528 7.49295 3.60706L11.88 6ZM10.6667 10.4685C10.6667 10.5907 10.5999 10.703 10.4926 10.7613L7.49262 12.3933C7.3933 12.4474 7.27336 12.4474 7.17404 12.3933L4.17404 10.7613C4.06677 10.703 4 10.5907 4 10.4685V8.18L7.17359 9.91278C7.27315 9.96714 7.39352 9.96714 7.49307 9.91278L10.6667 8.18V10.4685Z" fill="black"/>
</svg>
