<svg width="20" height="20" viewBox="0 0 20 20" fill="none" xmlns="http://www.w3.org/2000/svg">
<g clip-path="url(#clip0_115_525)">
<mask id="mask0_115_525" style="mask-type:alpha" maskUnits="userSpaceOnUse" x="0" y="0" width="20" height="20">
<rect width="20" height="20" fill="#D9D9D9"/>
</mask>
<g mask="url(#mask0_115_525)">
<path d="M14.1667 14.1667C14.5139 14.1667 14.809 14.0451 15.0521 13.8021C15.2951 13.559 15.4167 13.2639 15.4167 12.9167C15.4167 12.5694 15.2951 12.2743 15.0521 12.0313C14.809 11.7882 14.5139 11.6667 14.1667 11.6667C13.8194 11.6667 13.5243 11.7882 13.2813 12.0313C13.0382 12.2743 12.9167 12.5694 12.9167 12.9167C12.9167 13.2639 13.0382 13.559 13.2813 13.8021C13.5243 14.0451 13.8194 14.1667 14.1667 14.1667ZM14.1667 16.6667C14.6026 16.6667 14.9997 16.5673 15.3582 16.3686C15.7166 16.1699 16.0096 15.9039 16.2372 15.5705C15.9263 15.3846 15.5972 15.2431 15.25 15.1458C14.9028 15.0486 14.5417 15 14.1667 15C13.7917 15 13.4306 15.0486 13.0833 15.1458C12.7361 15.2431 12.407 15.3846 12.0961 15.5705C12.3237 15.9039 12.6167 16.1699 12.9752 16.3686C13.3336 16.5673 13.7308 16.6667 14.1667 16.6667ZM10 17.9006C8.19765 17.4092 6.7054 16.3483 5.52325 14.7179C4.3411 13.0876 3.75002 11.2649 3.75002 9.25V4.45515L10 2.11542L16.25 4.45515V9.17632C16.0555 9.09725 15.8515 9.02593 15.6378 8.96238C15.4241 8.89881 15.2115 8.84886 15 8.81252V5.32531L10 3.45833L5 5.32531V9.25C5 9.98825 5.10417 10.7091 5.3125 11.4127C5.52083 12.1162 5.80797 12.7738 6.1739 13.3854C6.53981 13.9971 6.97705 14.5462 7.4856 15.0329C7.99416 15.5195 8.54598 15.9081 9.14106 16.1987L9.1651 16.1907C9.27515 16.4963 9.41777 16.789 9.59298 17.0689C9.76819 17.3488 9.96743 17.6031 10.1907 17.8317C10.1555 17.8424 10.1237 17.8539 10.0954 17.8661C10.067 17.8784 10.0353 17.8899 10 17.9006ZM14.1667 17.9166C13.1261 17.9166 12.2409 17.5518 11.5112 16.8221C10.7815 16.0924 10.4167 15.2073 10.4167 14.1667C10.4167 13.1261 10.7815 12.2409 11.5112 11.5112C12.2409 10.7815 13.1261 10.4167 14.1667 10.4167C15.2073 10.4167 16.0924 10.7815 16.8221 11.5112C17.5518 12.2409 17.9166 13.1261 17.9166 14.1667C17.9166 15.2073 17.5518 16.0924 16.8221 16.8221C16.0924 17.5518 15.2073 17.9166 14.1667 17.9166Z" fill="#1C1B1F"/>
</g>
</g>
<defs>
<clipPath id="clip0_115_525">
<rect width="20" height="20" fill="white"/>
</clipPath>
</defs>
</svg>
