<svg width="16" height="16" viewBox="0 0 16 16" fill="none" xmlns="http://www.w3.org/2000/svg">
<path d="M8 6.66667C9.47334 6.66667 10.6667 5.47334 10.6667 4C10.6667 2.52667 9.47334 1.33334 8 1.33334C6.52667 1.33334 5.33334 2.52667 5.33334 4C5.33334 5.47334 6.52667 6.66667 8 6.66667ZM8 2.66667C8.73334 2.66667 9.33334 3.26667 9.33334 4C9.33334 4.73334 8.73334 5.33334 8 5.33334C7.26667 5.33334 6.66667 4.73334 6.66667 4C6.66667 3.26667 7.26667 2.66667 8 2.66667ZM12.26 8.37334C11.14 7.8 9.68667 7.33334 8 7.33334C6.31334 7.33334 4.86 7.8 3.74 8.37334C3.41471 8.54088 3.1422 8.79529 2.95274 9.10832C2.76327 9.42136 2.66425 9.78077 2.66667 10.1467V14.6667H4V10.1467C4 9.89334 4.13334 9.66667 4.33334 9.56C5.14 9.15334 6.42 8.66667 8 8.66667C8.50667 8.66667 8.98 8.71334 9.42 8.8L8.38667 11H6.5C5.48667 11 4.66667 11.82 4.66667 12.8333C4.66667 13.8467 5.48667 14.6667 6.5 14.6667H12C12.7333 14.6667 13.3333 14.0667 13.3333 13.3333V10.1467C13.3333 9.4 12.9267 8.71334 12.26 8.37334ZM7.29334 13.3333H6.5C6.22667 13.3333 6 13.1067 6 12.8333C6 12.56 6.22667 12.3333 6.5 12.3333H7.76L7.29334 13.3333ZM12 13.3333H8.76667L10.7267 9.15334C11.0867 9.28667 11.4 9.42667 11.6667 9.56C11.8667 9.66667 12 9.89334 12 10.1467V13.3333Z" fill="black"/>
</svg>
